# xmcd CD database file generated by OrangeCD 4.3
#
# Track frame offsets:
#	150
#	18150
#	38400
#	57750
#	82200
#	103050
#	131325
#	149250
#	168675
#	186825
#	204300
#	237300
#	253650
#	279975
#	296625
#	325125
#
# Disc length: 4610 seconds
#
# Revision: 1
# Processed by: cddbd v1.4PL0 Copyright (c) Steve Scherf et al.
# Submitted via: OrangeCD 4.3
#
DISCID=e3120010
DTITLE=Sade - Best of Sade
DYEAR=1900
DGENRE=
TTITLE0=Your Love Is King 
TTITLE1=Hang on to Your Love 
TTITLE2=Smooth Operator 
TTITLE3=Jezebel 
TTITLE4=Sweetest Taboo 
TTITLE5=Is It a Crime 
TTITLE6=Never As Good As the First Time 
TTITLE7=Love Is Stronger Than Pride 
TTITLE8=Paradise
TTITLE9=Nothing Can Come Between Us 
TTITLE10=No Ordinary Love 
TTITLE11=Like a Tattoo 
TTITLE12=Kiss of Life 
TTITLE13=Please Send Me Someone to Love 
TTITLE14=Cherish the Day 
TTITLE15=Pearls 
EXTD=
EXTT0=
EXTT1=
EXTT2=
EXTT3=
EXTT4=
EXTT5=
EXTT6=
EXTT7=
EXTT8=
EXTT9=
EXTT10=
EXTT11=
EXTT12=
EXTT13=
EXTT14=
EXTT15=
PLAYORDER=
